# xmcd
#
# Track frame offsets:
# 150
# 16312
# 29930
# 46671
# 59590
# 73745
# 88883
#
# Disc length: 1350 seconds
#
#
# Revision: 0
# Processed by: cddbd v1.5.1PL2 Copyright (c) Steve Scherf et al.
# Submitted via: FreeRIP 2.942 
#
DISCID=62054407
DTITLE=Höhner - Here We Go
DYEAR=2006
DGENRE=
TTITLE0=01 Here We Go
TTITLE1=02 Nur Drin Ist Drin
TTITLE2=03 Das Wunder Von Bern
TTITLE3=04 Wir Haben Lange Nicht Genug
TTITLE4=05 Jetzt Geht´s Los (Radio Mix)
TTITLE5=06 Viva Colonia (Fc Version)
TTITLE6=07 Schön, Dat Du Do Best
EXTD=
EXTT0=
EXTT1=
EXTT2=
EXTT3=
EXTT4=
EXTT5=
EXTT6=
PLAYORDER=
